<svg width="12" height="14" viewBox="0 0 12 14" fill="none" xmlns="http://www.w3.org/2000/svg">
<path d="M1.78569 5.38518V8.96152C1.78569 9.43713 1.4118 9.81701 0.935944 9.81701C0.463177 9.81701 0.00585938 9.43405 0.00585938 8.96152V5.38518C0.00585938 4.91884 0.463177 4.53588 0.935944 4.53588C1.40253 4.53588 1.78569 4.91884 1.78569 5.38518ZM2.11941 10.2339C2.11941 10.7404 2.52729 11.1481 3.03404 11.1481H3.64895L3.65822 13.0351C3.65822 14.1747 5.36389 14.1654 5.36389 13.0351V11.1481H6.51336V13.0351C6.51336 14.1685 8.2283 14.1716 8.2283 13.0351V11.1481H8.85248C9.35306 11.1481 9.76094 10.7404 9.76094 10.2339V4.69338H2.11941V10.2339ZM9.78257 4.39381H2.08542C2.08542 3.07199 2.87645 1.92311 4.05065 1.32396L3.46046 0.233766C3.37394 0.0824354 3.59333 -0.0133043 3.66749 0.116408L4.26695 1.21587C5.34535 0.737172 6.58443 0.761879 7.6134 1.21587L8.20976 0.119496C8.28701 -0.0133044 8.50331 0.0855237 8.41679 0.236854L7.82661 1.32396C8.99153 1.92311 9.78257 3.07199 9.78257 4.39381ZM4.50796 2.67976C4.50796 2.50372 4.36583 2.35548 4.18352 2.35548C4.00739 2.35548 3.86834 2.50372 3.86834 2.67976C3.86834 2.8558 4.01048 3.00404 4.18352 3.00404C4.36583 3.00404 4.50796 2.8558 4.50796 2.67976ZM8.01201 2.67976C8.01201 2.50372 7.86987 2.35548 7.69683 2.35548C7.51452 2.35548 7.37238 2.50372 7.37238 2.67976C7.37238 2.8558 7.51452 3.00404 7.69683 3.00404C7.86987 3.00404 8.01201 2.8558 8.01201 2.67976ZM10.9413 4.53588C10.4747 4.53588 10.0916 4.90957 10.0916 5.38518V8.96152C10.0916 9.43713 10.4747 9.81701 10.9413 9.81701C11.4172 9.81701 11.8714 9.43405 11.8714 8.96152V5.38518C11.8714 4.90957 11.4141 4.53588 10.9413 4.53588Z" fill="black"/>
</svg>
