<svg width="13" height="14" viewBox="0 0 13 14" fill="none" xmlns="http://www.w3.org/2000/svg">
<path d="M10.1517 7.36439C10.1456 6.23096 10.6582 5.37548 11.6959 4.74545C11.1153 3.91467 10.2382 3.45759 9.08008 3.36803C7.9837 3.28156 6.78541 4.00732 6.34686 4.00732C5.88361 4.00732 4.8212 3.39891 3.98734 3.39891C2.26403 3.42671 0.432617 4.77324 0.432617 7.51263C0.432617 8.32179 0.580859 9.15874 0.877344 10.0204C1.27266 11.1538 2.69949 13.9334 4.18809 13.887C4.96636 13.8685 5.51609 13.3342 6.52908 13.3342C7.51118 13.3342 8.02076 13.887 8.8886 13.887C10.3896 13.8654 11.6805 11.3391 12.0573 10.2026C10.0437 9.25448 10.1517 7.42307 10.1517 7.36439ZM8.40372 2.29327C9.24685 1.29264 9.16964 0.381567 9.14493 0.0541992C8.40064 0.0974365 7.53898 0.560693 7.04792 1.13204C6.50746 1.74354 6.18936 2.5002 6.2573 3.35259C7.06337 3.41436 7.7984 3.00051 8.40372 2.29327Z" fill="black"/>
</svg>
