<svg width="15" height="14" viewBox="0 0 15 14" fill="none" xmlns="http://www.w3.org/2000/svg">
<path d="M7.55295 3.4224C5.58772 3.4224 4.00256 5.00674 4.00256 6.97094C4.00256 8.93515 5.58772 10.5195 7.55295 10.5195C9.51818 10.5195 11.1033 8.93515 11.1033 6.97094C11.1033 5.00674 9.51818 3.4224 7.55295 3.4224ZM7.55295 9.27796C6.28296 9.27796 5.24473 8.24336 5.24473 6.97094C5.24473 5.69853 6.27987 4.66393 7.55295 4.66393C8.82602 4.66393 9.86116 5.69853 9.86116 6.97094C9.86116 8.24336 8.82293 9.27796 7.55295 9.27796ZM12.0767 3.27724C12.0767 3.73741 11.7059 4.10493 11.2486 4.10493C10.7882 4.10493 10.4205 3.73432 10.4205 3.27724C10.4205 2.82016 10.7912 2.44956 11.2486 2.44956C11.7059 2.44956 12.0767 2.82016 12.0767 3.27724ZM14.4282 4.11728C14.3756 3.00855 14.1223 2.02645 13.3096 1.21729C12.5 0.408139 11.5174 0.154892 10.4081 0.0993011C9.2648 0.0344452 5.83801 0.0344452 4.69471 0.0993011C3.5885 0.151804 2.60588 0.405051 1.79322 1.21421C0.980552 2.02336 0.730263 3.00547 0.674644 4.11419C0.609754 5.25689 0.609754 8.68191 0.674644 9.82461C0.727174 10.9333 0.980552 11.9154 1.79322 12.7246C2.60588 13.5338 3.58541 13.787 4.69471 13.8426C5.83801 13.9074 9.2648 13.9074 10.4081 13.8426C11.5174 13.7901 12.5 13.5368 13.3096 12.7246C14.1192 11.9154 14.3725 10.9333 14.4282 9.82461C14.493 8.68191 14.493 5.25998 14.4282 4.11728ZM12.9511 11.0507C12.7101 11.656 12.2435 12.1224 11.6348 12.3663C10.7233 12.7277 8.56028 12.6443 7.55295 12.6443C6.54561 12.6443 4.37953 12.7246 3.47108 12.3663C2.86544 12.1254 2.39885 11.6591 2.15475 11.0507C1.79322 10.1396 1.87665 7.97776 1.87665 6.97094C1.87665 5.96413 1.79631 3.79918 2.15475 2.8912C2.39576 2.28587 2.86235 1.81953 3.47108 1.57555C4.38262 1.21421 6.54561 1.29759 7.55295 1.29759C8.56028 1.29759 10.7264 1.21729 11.6348 1.57555C12.2405 1.81644 12.707 2.28279 12.9511 2.8912C13.3127 3.80227 13.2292 5.96413 13.2292 6.97094C13.2292 7.97776 13.3127 10.1427 12.9511 11.0507Z" fill="black"/>
</svg>
